<?xml version="1.0" standalone="no"?>
<!DOCTYPE svg PUBLIC "-//W3C//DTD SVG 20010904//EN"
 "http://www.w3.org/TR/2001/REC-SVG-20010904/DTD/svg10.dtd">
<svg version="1.0" xmlns="http://www.w3.org/2000/svg"
 width="1444.000000pt" height="1444.000000pt" viewBox="0 0 1444.000000 1444.000000"
 preserveAspectRatio="xMidYMid meet">
<metadata>
Created by potrace 1.14, written by Peter Selinger 2001-2017
</metadata>
<g transform="translate(0.000000,1444.000000) scale(0.100000,-0.100000)"
fill="#000000" stroke="none">
<path d="M10228 11995 c-3 -3 -63 -11 -148 -20 -19 -2 -59 -8 -89 -14 -29 -6
-58 -8 -64 -4 -5 3 -7 1 -4 -4 4 -7 -12 -14 -41 -18 -26 -4 -54 -11 -63 -16
-9 -4 -27 -10 -40 -13 -29 -6 -383 -117 -447 -141 -7 -2 -16 -5 -20 -6 -4 -1
-29 -10 -57 -21 -27 -11 -54 -21 -60 -23 -5 -1 -23 -7 -40 -14 -16 -6 -43 -16
-60 -22 -16 -6 -39 -15 -50 -21 -12 -5 -27 -10 -35 -12 -8 -1 -33 -10 -55 -20
-22 -10 -61 -26 -86 -36 -51 -20 -96 -41 -237 -107 -52 -23 -98 -43 -103 -43
-5 0 -9 -4 -9 -10 0 -5 -9 -10 -19 -10 -11 0 -21 -3 -23 -7 -1 -5 -32 -23 -68
-41 -76 -39 -153 -82 -160 -91 -3 -3 -21 -15 -40 -25 -19 -11 -39 -24 -45 -28
-5 -5 -41 -32 -80 -60 -38 -28 -96 -77 -127 -107 -56 -55 -59 -56 -123 -61
-37 -3 -71 -3 -75 0 -5 3 -43 3 -85 0 -42 -3 -79 -2 -82 3 -2 4 -9 5 -14 2
-12 -8 -195 -9 -208 -1 -5 4 -12 2 -16 -4 -4 -6 -11 -8 -16 -4 -6 3 -40 5 -77
4 -37 -1 -74 -1 -82 -1 -8 1 -37 0 -65 0 -27 -1 -66 -1 -85 0 -19 0 -55 1 -80
0 -25 0 -58 0 -75 0 -16 0 -73 0 -125 0 -52 -1 -99 -1 -105 0 -102 3 -118 8
-167 51 -50 44 -214 160 -226 160 -7 0 -12 4 -12 8 0 4 -15 16 -32 27 -18 10
-57 34 -85 52 -29 18 -56 34 -60 34 -5 0 -15 6 -23 14 -29 26 -382 207 -542
279 -44 20 -219 88 -233 90 -5 2 -28 10 -50 20 -22 10 -51 20 -64 22 -13 3
-34 10 -45 16 -12 6 -23 11 -26 10 -3 -1 -23 4 -45 10 -22 6 -44 12 -50 14 -5
1 -30 8 -55 15 -25 7 -52 14 -60 15 -8 2 -43 10 -77 18 -126 31 -359 70 -379
62 -6 -2 -15 -2 -19 2 -3 4 -21 8 -38 9 -82 7 -229 14 -297 14 -96 2 -375 -14
-375 -21 0 -1 -18 -3 -40 -5 -22 -2 -53 -6 -70 -9 -16 -4 -46 -9 -65 -12 -42
-6 -68 -11 -95 -18 -11 -2 -50 -12 -86 -20 -36 -9 -97 -26 -135 -38 -38 -12
-73 -23 -79 -24 -56 -14 -269 -100 -302 -121 -13 -9 -23 -13 -23 -9 0 7 -229
-111 -251 -130 -8 -8 -23 -14 -31 -14 -9 0 -18 -4 -20 -8 -1 -4 -32 -26 -67
-48 -83 -52 -168 -109 -216 -146 -5 -4 -46 -35 -90 -69 -197 -153 -451 -401
-534 -522 -8 -12 -18 -24 -21 -27 -7 -6 -110 -152 -155 -220 -16 -25 -28 -48
-27 -52 1 -5 -2 -8 -7 -8 -5 0 -16 -15 -25 -32 -9 -18 -26 -46 -36 -63 -11
-16 -24 -39 -30 -50 -5 -11 -25 -47 -44 -80 -58 -99 -274 -538 -280 -570 -2
-5 -15 -36 -29 -69 -15 -32 -27 -61 -27 -63 0 -3 -6 -19 -14 -36 -15 -34 -86
-210 -91 -227 -1 -3 -8 -21 -17 -41 -9 -20 -19 -50 -23 -68 -4 -17 -13 -44
-21 -61 -8 -16 -17 -37 -19 -47 -4 -16 -62 -184 -66 -190 -1 -2 -3 -7 -4 -13
-1 -5 -3 -11 -5 -12 -1 -2 -3 -11 -5 -21 -2 -10 -7 -26 -11 -35 -4 -9 -8 -22
-10 -29 -1 -7 -13 -47 -27 -90 -59 -183 -129 -429 -179 -628 -21 -84 -21 -87
-38 -150 -6 -22 -12 -49 -15 -60 -4 -22 -11 -55 -22 -100 -4 -16 -6 -33 -5
-37 1 -5 -1 -8 -5 -8 -5 0 -8 -10 -9 -22 -1 -26 -7 -58 -35 -183 -12 -49 -23
-101 -25 -115 -8 -52 -13 -75 -14 -75 -1 0 -3 -11 -6 -25 -4 -28 -16 -88 -21
-110 -1 -8 -5 -26 -7 -40 -2 -14 -6 -41 -10 -60 -10 -60 -36 -217 -52 -315 -2
-16 -6 -41 -9 -55 -2 -14 -7 -45 -10 -70 -3 -25 -7 -54 -9 -65 -2 -11 -7 -49
-11 -85 -4 -36 -9 -74 -11 -85 -2 -11 -7 -47 -9 -80 -3 -33 -7 -76 -10 -95 -2
-19 -6 -60 -9 -90 -3 -30 -8 -80 -11 -110 -6 -52 -9 -97 -19 -230 -28 -371
-28 -1050 -1 -1295 3 -22 7 -67 10 -100 3 -33 7 -76 10 -95 3 -19 8 -57 11
-85 8 -74 11 -96 19 -135 4 -19 9 -46 10 -60 2 -14 4 -25 5 -25 1 0 3 -9 4
-20 1 -11 6 -38 11 -60 4 -22 9 -44 10 -50 1 -5 3 -12 4 -15 1 -3 4 -17 6 -31
2 -14 9 -45 16 -70 7 -24 13 -46 14 -49 0 -3 7 -30 15 -60 8 -30 13 -58 12
-62 -1 -5 2 -8 6 -8 4 0 9 -12 10 -27 1 -15 8 -30 15 -35 6 -4 9 -8 5 -8 -4 0
0 -17 9 -38 8 -20 15 -39 15 -42 0 -3 4 -15 9 -28 5 -13 9 -25 9 -27 0 -3 37
-85 88 -195 54 -115 184 -295 281 -388 110 -105 283 -209 374 -226 14 -2 32
-8 37 -11 6 -4 26 -9 43 -11 18 -3 44 -9 59 -14 29 -9 326 -7 373 4 49 11 84
18 90 17 2 0 19 5 37 10 18 6 40 12 49 14 47 10 154 47 166 56 7 6 13 9 13 6
0 -6 98 33 145 57 17 9 36 16 43 16 6 0 12 5 12 10 0 6 3 9 8 8 7 -3 104 45
162 81 19 11 45 25 56 30 21 9 104 61 224 140 30 19 57 39 58 43 2 5 10 8 18
8 8 0 17 7 20 15 4 8 10 15 15 15 11 0 122 81 127 93 2 4 10 7 17 7 7 0 15 3
17 8 1 4 44 39 93 77 50 38 101 80 115 93 14 13 46 39 73 60 26 20 47 40 47
44 0 4 4 8 10 8 5 0 25 15 43 32 19 18 62 58 97 88 278 245 780 757 1086 1109
16 18 40 45 54 60 14 15 45 51 70 80 25 29 56 66 70 81 14 16 36 42 50 60 73
91 130 135 145 110 3 -5 19 -5 35 0 17 5 30 6 30 2 0 -4 43 -7 95 -7 52 0 95
3 95 7 0 4 13 3 29 -2 16 -4 32 -6 35 -3 7 8 105 7 113 -1 3 -3 13 -1 22 4 10
5 23 5 31 0 7 -4 24 -4 36 0 14 6 26 5 29 0 3 -5 18 -5 34 0 15 4 33 5 40 1 6
-4 34 -5 61 -1 27 4 55 3 62 -1 6 -4 19 -4 28 1 9 5 22 5 30 0 7 -4 24 -4 36
0 14 6 26 5 29 0 3 -5 18 -5 34 0 15 4 34 4 42 0 7 -5 16 -7 20 -4 9 5 49 5
187 2 56 -2 102 0 102 4 0 4 6 5 14 2 19 -7 176 -11 176 -4 0 7 89 4 96 -3 4
-3 17 -2 30 3 13 5 26 6 29 0 3 -5 18 -5 35 0 17 5 30 6 30 2 0 -4 58 -7 130
-7 71 0 130 2 130 5 0 3 19 4 42 2 73 -4 167 -4 176 2 4 2 14 1 22 -4 8 -5 21
-5 30 0 9 5 22 5 28 1 7 -4 35 -5 62 -1 27 4 55 3 62 -1 6 -4 19 -4 28 1 9 5
22 5 30 0 7 -4 24 -4 36 0 14 6 26 5 29 0 3 -5 18 -5 34 0 15 4 33 5 40 1 6
-4 34 -5 61 -1 27 4 55 3 62 -1 6 -4 19 -4 28 1 9 5 22 5 30 0 7 -4 24 -4 36
0 14 6 26 5 29 0 3 -5 18 -5 34 0 16 4 32 6 34 3 7 -6 187 -9 187 -3 0 7 89 4
96 -3 4 -3 17 -2 30 3 13 5 26 6 29 0 3 -5 18 -5 33 -1 15 5 36 5 47 1 11 -4
27 -4 36 1 9 5 19 5 23 2 8 -8 102 -7 116 2 5 3 10 2 10 -3 0 -6 14 -7 35 -2
19 4 35 5 35 1 0 -3 34 -6 75 -6 41 0 75 2 75 5 0 7 89 4 96 -3 4 -3 17 -2 30
3 13 5 26 6 29 0 3 -5 18 -5 35 0 17 5 30 6 30 2 0 -4 43 -7 95 -7 52 0 95 3
95 7 0 4 13 3 29 -2 16 -4 32 -6 35 -3 7 8 105 7 113 -1 3 -3 13 -1 22 4 10 5
23 5 31 0 7 -4 24 -4 36 0 14 6 26 5 29 0 3 -5 18 -5 34 0 15 4 33 5 40 1 6
-4 34 -5 61 -1 27 4 55 3 62 -1 6 -4 19 -4 28 1 9 5 22 5 30 0 7 -4 24 -4 36
0 14 6 26 5 29 0 3 -5 18 -5 34 0 15 4 34 4 40 0 7 -4 29 -4 50 0 20 4 46 3
57 0 10 -4 26 -4 35 1 8 4 21 4 29 -1 7 -4 24 -4 37 1 12 5 23 5 23 0 0 -4 11
-6 24 -4 20 4 46 -23 199 -214 97 -120 186 -230 199 -244 13 -15 41 -48 63
-74 22 -26 49 -58 60 -71 11 -12 40 -46 65 -74 25 -29 64 -73 87 -98 24 -26
43 -51 43 -55 0 -5 5 -5 10 -2 6 3 10 2 10 -3 0 -34 577 -613 821 -823 13 -11
35 -30 49 -42 106 -92 201 -167 210 -167 6 0 8 -4 5 -10 -3 -5 1 -10 9 -10 9
0 16 -4 16 -8 0 -4 12 -15 28 -24 15 -10 41 -28 57 -42 40 -34 40 -34 115 -86
36 -24 67 -48 68 -52 2 -4 10 -8 18 -8 8 0 14 -3 14 -8 0 -4 9 -12 19 -17 11
-6 70 -41 133 -80 62 -38 136 -81 163 -95 28 -14 51 -28 53 -32 2 -5 9 -8 15
-8 7 0 26 -7 42 -16 53 -28 231 -102 276 -115 24 -7 46 -13 49 -14 3 -1 19 -5
35 -10 17 -4 34 -10 40 -13 5 -4 16 -7 25 -7 16 -2 70 -12 110 -21 60 -13 287
-12 365 2 80 15 257 79 263 95 2 5 9 9 16 9 27 0 236 169 236 190 0 5 4 10 9
10 22 0 222 292 233 340 2 8 6 17 9 20 7 5 39 79 37 83 -1 1 6 16 15 32 19 33
104 262 111 298 2 12 9 33 14 47 5 14 10 28 11 33 2 18 14 63 19 72 3 5 7 18
8 30 2 17 7 41 29 135 23 100 45 217 41 226 -3 7 -2 15 2 18 3 4 7 12 8 19 1
7 5 26 8 42 3 17 8 53 11 80 2 28 7 61 10 75 6 27 15 93 20 150 2 19 7 67 11
105 4 39 7 85 8 103 0 17 3 32 6 32 3 0 6 24 6 53 1 28 4 95 7 147 19 301 22
410 22 860 -1 452 -4 606 -21 820 -3 41 -8 104 -10 140 -8 118 -12 165 -14
165 -1 0 -4 25 -6 55 -2 30 -6 69 -8 86 -2 17 -7 58 -11 90 -4 33 -9 75 -11
94 -2 19 -5 44 -8 55 -3 11 -8 45 -11 75 -7 59 -9 73 -20 135 -10 65 -14 87
-25 148 -6 31 -8 62 -5 67 3 6 2 10 -3 10 -5 0 -12 21 -15 48 -6 44 -13 81
-17 92 -1 3 -3 10 -4 15 -10 58 -23 119 -47 220 -15 66 -30 129 -32 140 -2 11
-7 27 -10 35 -3 8 -13 44 -22 80 -15 58 -27 105 -40 150 -2 8 -9 31 -15 50 -6
19 -13 45 -16 56 -5 25 -91 290 -104 319 -4 11 -32 83 -60 160 -29 77 -62 160
-73 185 -11 25 -28 65 -39 90 -11 25 -37 81 -58 125 -20 44 -40 90 -44 103 -4
12 -12 22 -17 22 -5 0 -9 9 -9 19 0 11 -7 27 -16 35 -8 9 -12 16 -9 16 4 0 -4
19 -18 43 -13 23 -39 69 -57 102 -18 33 -42 75 -52 93 -10 17 -28 49 -39 70
-12 20 -29 48 -38 62 -32 50 -41 65 -51 88 -5 12 -14 22 -20 22 -5 0 -10 5
-10 11 0 9 -136 216 -151 229 -3 3 -25 32 -50 65 -59 79 -68 92 -106 135 -18
21 -33 40 -33 43 0 3 -10 17 -22 29 -13 13 -57 62 -98 108 -84 95 -212 224
-316 318 -98 91 -99 91 -209 176 -55 43 -110 86 -122 97 -13 10 -23 16 -23 11
0 -4 -4 -2 -8 5 -4 6 -45 36 -92 67 -47 30 -90 59 -96 63 -10 8 -29 19 -76 46
-13 6 -25 14 -28 17 -20 20 -337 175 -445 218 -168 66 -378 133 -465 148 -14
3 -33 7 -42 10 -10 3 -30 7 -45 10 -16 2 -41 7 -58 11 -16 3 -41 7 -55 8 -32
3 -117 15 -150 21 -28 6 -427 14 -432 9z m-143 -1642 c103 -5 213 -33 289 -76
12 -6 24 -10 29 -9 4 1 7 -2 7 -8 0 -5 6 -10 13 -10 7 0 23 -9 35 -20 12 -11
25 -20 29 -20 14 0 138 -123 180 -180 57 -75 112 -198 134 -294 34 -156 19
-343 -38 -473 -9 -21 -17 -40 -18 -43 -2 -13 -66 -118 -84 -137 -12 -12 -21
-24 -21 -27 0 -8 -93 -98 -136 -132 -86 -68 -245 -137 -349 -153 -112 -16
-364 3 -381 30 -3 5 -12 9 -20 9 -37 0 -185 85 -253 145 -142 126 -225 271
-265 461 -14 65 -14 243 -1 285 5 13 9 33 11 44 7 63 49 156 110 250 43 66
154 194 154 178 0 -2 6 2 14 9 31 30 52 44 133 89 33 19 164 66 208 75 11 3
49 7 84 9 35 2 66 7 69 10 3 3 8 2 11 -2 3 -5 29 -9 56 -10z m-5914 -478 c91
-6 154 -13 180 -21 10 -3 30 -7 45 -9 58 -9 158 -36 164 -44 3 -5 5 -254 5
-554 l0 -545 43 -4 c24 -2 46 0 48 4 3 5 14 3 25 -2 11 -6 19 -7 19 -1 0 5 14
6 35 1 20 -4 38 -4 41 1 3 5 13 5 25 -1 11 -6 19 -7 19 -1 0 5 14 6 35 1 20
-4 38 -4 41 1 3 5 13 5 25 -1 11 -6 19 -7 19 -1 0 5 14 6 35 1 20 -4 38 -4 41
1 3 5 13 5 25 -1 10 -6 19 -7 19 -3 0 4 137 7 304 5 l304 -3 8 -27 c4 -15 9
-31 10 -37 1 -5 3 -12 4 -15 1 -3 3 -16 6 -30 2 -14 7 -32 11 -40 3 -8 7 -28
9 -45 1 -16 5 -41 8 -54 7 -33 19 -183 19 -246 1 -60 -12 -230 -18 -247 -4
-15 -17 -94 -18 -120 -1 -10 -4 -18 -7 -18 -3 0 -7 -8 -8 -17 -2 -21 -10 -57
-12 -60 -3 -4 -7 -20 -9 -34 0 -7 -12 -9 -26 -7 -14 3 -25 2 -25 -2 0 -4 -16
-4 -35 0 -20 4 -38 4 -41 -1 -3 -5 -13 -5 -25 1 -10 6 -19 7 -19 3 0 -4 -88
-6 -196 -3 -108 3 -198 2 -201 -3 -2 -4 -13 -2 -24 3 -11 6 -19 7 -19 1 0 -5
-14 -6 -35 -1 -20 4 -38 4 -41 -1 -3 -5 -13 -5 -25 1 -11 6 -19 7 -19 1 0 -5
-14 -6 -35 -1 -20 4 -38 4 -41 -1 -3 -5 -13 -5 -25 1 -14 8 -19 7 -19 -1 0 -9
-3 -9 -14 0 -10 8 -16 9 -21 1 -4 -7 -12 -7 -26 0 -11 6 -19 7 -19 1 0 -5 -14
-6 -35 -1 -20 4 -38 4 -41 -1 -3 -5 -13 -5 -25 1 -10 6 -19 7 -19 2 0 -5 -12
-7 -28 -4 l-27 4 0 -553 0 -552 -43 -12 c-23 -7 -42 -11 -42 -8 0 2 -6 1 -12
-4 -14 -8 -17 -9 -63 -18 -16 -3 -39 -7 -50 -9 -136 -30 -438 -28 -600 4 -94
18 -109 21 -117 26 -5 3 -21 8 -35 10 -15 3 -30 8 -33 10 -3 3 -5 252 -5 552
l0 547 -188 5 c-104 3 -191 2 -194 -3 -2 -4 -13 -2 -24 3 -11 6 -19 7 -19 1 0
-5 -14 -6 -35 -1 -20 4 -38 4 -41 -1 -3 -5 -13 -5 -25 1 -11 6 -19 7 -19 1 0
-5 -14 -6 -35 -1 -20 4 -38 4 -41 -1 -3 -5 -13 -5 -25 1 -14 8 -19 7 -19 -1 0
-9 -3 -9 -14 0 -10 8 -16 9 -21 1 -4 -7 -12 -7 -26 0 -11 6 -19 7 -19 1 0 -5
-14 -6 -35 -1 -20 4 -38 4 -41 -1 -3 -5 -13 -5 -25 1 -11 6 -19 7 -19 1 0 -5
-14 -6 -35 -1 -20 4 -38 4 -41 -1 -3 -5 -13 -5 -25 1 -10 6 -19 7 -19 2 0 -9
-52 -7 -77 3 -7 2 -15 0 -18 -6 -18 -28 -48 58 -71 201 -3 19 -7 46 -10 60 -2
14 -7 41 -10 60 -9 50 -9 334 0 349 4 6 9 37 11 69 2 53 23 152 46 229 6 19
17 32 27 32 9 0 26 2 37 4 11 2 24 2 29 -1 15 -8 67 -8 73 1 2 4 13 2 24 -3
11 -6 19 -7 19 -1 0 5 14 6 35 1 20 -4 38 -4 41 1 3 5 13 5 25 -1 11 -6 19 -7
19 -1 0 5 14 6 35 1 20 -4 38 -4 41 1 3 5 13 5 25 -1 11 -6 19 -7 19 -1 0 5
14 6 35 1 20 -4 38 -4 41 1 3 5 13 5 25 -1 11 -6 19 -7 19 -1 0 5 14 6 35 1
20 -4 38 -4 41 1 3 5 13 5 25 -1 10 -6 19 -7 19 -2 0 4 25 5 56 2 30 -3 57 -3
60 2 3 4 14 3 25 -2 11 -6 19 -7 19 -1 0 5 14 6 35 1 20 -4 38 -4 41 1 3 5 13
5 25 -1 11 -6 19 -7 19 -1 0 5 14 6 35 1 20 -4 38 -4 41 1 3 5 13 5 25 -1 13
-7 19 -7 19 0 0 5 5 9 12 7 9 -1 12 124 13 547 l0 550 30 8 c128 37 248 57
374 63 52 3 96 7 99 9 3 3 8 3 12 1 4 -2 45 -7 91 -10z m7995 -697 c33 -9 70
-21 82 -27 12 -6 22 -8 22 -4 0 4 5 2 12 -5 7 -7 20 -12 30 -12 10 0 18 -4 18
-8 0 -5 16 -14 35 -22 19 -8 35 -17 35 -22 0 -4 5 -8 11 -8 30 0 219 -181 219
-210 0 -6 5 -10 10 -10 6 0 10 -7 10 -15 0 -8 5 -15 10 -15 6 0 10 -7 10 -15
0 -8 5 -15 10 -15 6 0 10 -5 10 -12 0 -6 8 -30 19 -52 52 -112 70 -211 66
-351 -2 -60 -5 -117 -7 -125 -3 -8 -10 -35 -17 -60 -17 -63 -72 -190 -82 -190
-5 0 -8 -3 -7 -7 8 -25 -171 -225 -212 -238 -11 -4 -20 -10 -20 -14 0 -12
-179 -98 -230 -111 -89 -22 -117 -25 -230 -24 -87 0 -135 6 -194 23 -87 24
-226 87 -226 102 0 5 -5 9 -11 9 -21 0 -114 82 -169 149 -19 24 -41 49 -47 56
-12 13 -84 149 -90 170 -1 6 -13 48 -26 95 -20 72 -24 104 -22 200 2 63 6 126
10 140 3 14 8 36 11 50 11 54 67 177 109 239 53 80 181 211 205 211 5 0 10 4
10 9 0 5 10 13 23 17 12 4 24 10 27 14 16 21 184 85 255 96 22 3 42 7 43 9 10
9 235 -4 288 -17z m-2019 -949 c34 -5 83 -16 110 -25 65 -21 213 -94 213 -105
0 -5 5 -9 11 -9 24 0 156 -134 204 -206 71 -106 119 -235 131 -354 3 -30 8
-57 10 -59 2 -2 -1 -12 -6 -22 -7 -12 -7 -20 0 -24 6 -4 9 -9 6 -13 -2 -4 -7
-32 -10 -62 -13 -110 -83 -310 -108 -310 -5 0 -7 -4 -3 -9 3 -5 0 -15 -7 -23
-7 -7 -26 -30 -41 -51 -49 -65 -129 -138 -205 -188 -41 -27 -81 -49 -88 -49
-8 0 -14 -4 -14 -10 0 -5 -3 -9 -7 -8 -5 0 -15 -2 -23 -5 -14 -6 -114 -35
-150 -45 -8 -2 -64 -5 -125 -7 -158 -4 -306 31 -415 100 -22 14 -42 25 -46 25
-3 0 -11 6 -19 13 -26 24 -55 47 -63 48 -12 1 -137 148 -135 159 2 5 -1 10 -6
10 -25 0 -92 157 -127 295 -12 47 -11 232 2 291 61 294 261 523 536 613 118
38 244 49 375 30z"/>
</g>
</svg>
